<svg width="30" height="30" viewBox="0 0 30 30" fill="none" xmlns="http://www.w3.org/2000/svg">
<g clip-path="url(#clip0_2_738)">
<path d="M15 30C23.2843 30 30 23.2843 30 15C30 6.71573 23.2843 0 15 0C6.71573 0 0 6.71573 0 15C0 23.2843 6.71573 30 15 30Z" fill="#F5B300"/>
<path d="M10.9304 7.33441C11.4509 7.47636 11.9714 7.571 12.4919 7.71296C13.0124 7.85491 13.533 7.94955 14.0535 8.09151C14.1954 8.13882 14.2427 8.09151 14.29 7.94955C14.4793 7.14513 14.6686 6.38804 14.8579 5.58362C14.9052 5.44166 14.9525 5.39435 15.0945 5.44166C15.5677 5.58362 15.9935 5.67826 16.4667 5.77289C16.6087 5.82021 16.6087 5.86753 16.5613 5.96217C16.3721 6.71927 16.1828 7.52368 15.9935 8.28078C15.9935 8.3281 15.9935 8.37542 15.9462 8.47006C16.3247 8.56469 16.7506 8.65933 17.1292 8.75397C17.1765 8.75397 17.2238 8.65933 17.2711 8.61201C17.4131 7.99687 17.555 7.42905 17.7443 6.8139L17.8863 6.24608C17.8863 6.15144 17.9336 6.10412 18.0282 6.15144C18.5014 6.2934 18.9746 6.38804 19.4951 6.52999C19.5424 6.52999 19.5424 6.57731 19.5897 6.57731C19.4478 7.19245 19.3058 7.76028 19.1639 8.3281C19.1165 8.56469 19.0692 8.80129 18.9746 9.03788C18.9273 9.17983 18.9746 9.22715 19.1165 9.27447L20.6781 9.98425C21.1512 10.2682 21.5771 10.6467 21.9083 11.1199C22.3342 11.8297 22.3815 12.5868 22.1923 13.3439C22.0503 13.8644 21.861 14.3376 21.4825 14.7161C21.1986 15 20.82 15.1893 20.4415 15.3313C20.3942 15.3313 20.3468 15.3786 20.2522 15.3786C20.4415 15.5205 20.6307 15.6152 20.82 15.7571C21.3878 16.183 21.7664 16.7035 21.9557 17.366C22.0503 17.8865 22.003 18.4543 21.861 18.9748C21.6718 19.6372 21.4352 20.2051 21.0093 20.7256C20.4888 21.3407 19.8263 21.6719 19.0692 21.7666C18.0755 21.9085 17.1292 21.8139 16.1828 21.6719C16.0408 21.6246 15.9462 21.6719 15.8989 21.8139C15.7096 22.571 15.5203 23.3754 15.3311 24.1325C15.2837 24.3218 15.2837 24.3691 15.0471 24.2745C14.6213 24.1798 14.1481 24.0379 13.7222 23.9432C13.5803 23.8959 13.5803 23.8486 13.6276 23.754C13.8169 22.9496 14.0061 22.1451 14.2427 21.388C14.2427 21.2934 14.29 21.2461 14.1954 21.1988C13.8169 21.1041 13.4383 21.0095 13.0124 20.9149C12.9178 21.3407 12.7759 21.7666 12.6812 22.1925C12.5866 22.6183 12.4446 23.0442 12.35 23.4701C12.3027 23.5647 12.3027 23.612 12.1607 23.5647C11.6875 23.4227 11.2143 23.3281 10.7412 23.2335C10.5992 23.1861 10.5992 23.1388 10.6465 23.0442C10.8358 22.2398 11.0251 21.4354 11.2617 20.6783C11.2617 20.6309 11.309 20.5836 11.309 20.489C10.2206 20.2051 9.13232 19.9212 7.99667 19.6372C8.09131 19.448 8.13863 19.306 8.23327 19.1167C8.42254 18.6909 8.61182 18.265 8.75377 17.8865C8.80109 17.7445 8.84841 17.7445 8.99036 17.7445C9.32159 17.8391 9.70014 17.9338 10.0314 17.9811C10.4099 18.0757 10.6938 17.8865 10.7412 17.5552C11.3563 15.142 11.9714 12.7287 12.5393 10.2682C12.6339 9.88961 12.3973 9.46375 11.9714 9.32179C11.5456 9.17983 11.1197 9.0852 10.7412 8.99056C10.6465 8.99056 10.5992 8.94324 10.6465 8.8486C10.7885 8.3281 10.9304 7.76028 11.0724 7.23977C10.8831 7.38173 10.8831 7.38173 10.9304 7.33441ZM13.3437 19.0221C13.391 19.0221 13.4383 19.0694 13.4383 19.0694C14.1954 19.2587 14.9998 19.4953 15.8042 19.5426C16.3721 19.5899 16.8926 19.5899 17.4131 19.4007C18.3121 19.1167 18.6907 17.9338 18.1702 17.1767C17.9336 16.7981 17.555 16.5615 17.1765 16.3249C16.3247 15.8518 15.3311 15.6625 14.3847 15.4732C14.2427 15.4259 14.2427 15.4732 14.1954 15.6152C14.1008 16.0884 13.9588 16.5142 13.8642 16.9874C13.6749 17.6499 13.533 18.3123 13.3437 19.0221ZM17.3184 14.1956C17.4131 14.1956 17.6497 14.1483 17.8389 14.101C18.738 13.9117 19.2112 12.8707 18.738 12.0663C18.5014 11.6404 18.0755 11.3565 17.6497 11.1672C16.9872 10.8833 16.3247 10.7413 15.615 10.5521C15.473 10.5048 15.4257 10.5521 15.3784 10.694C15.1418 11.6877 14.9052 12.6341 14.6213 13.6278C14.574 13.7224 14.6213 13.7697 14.7159 13.8171C14.9052 13.8644 15.0471 13.9117 15.2364 13.959C15.9462 14.0537 16.5613 14.1956 17.3184 14.1956Z" fill="white"/>
</g>
<defs>
<clipPath id="clip0_2_738">
<rect width="30" height="30" fill="white"/>
</clipPath>
</defs>
</svg>
