<svg width="18" height="18" viewBox="0 0 18 18" fill="none" xmlns="http://www.w3.org/2000/svg">
<path d="M9 18C13.9706 18 18 13.9706 18 9C18 4.02944 13.9706 0 9 0C4.02944 0 0 4.02944 0 9C0 13.9706 4.02944 18 9 18Z" fill="#F5B300"/>
<path d="M6.55823 4.40066C6.87053 4.48583 7.18283 4.54261 7.49513 4.62779C7.80744 4.71296 8.11974 4.76974 8.43204 4.85492C8.51722 4.88331 8.54561 4.85492 8.574 4.76974C8.68756 4.28709 8.80113 3.83283 8.91469 3.35018C8.94308 3.26501 8.97148 3.23662 9.05665 3.26501C9.34056 3.35018 9.59608 3.40697 9.87999 3.46375C9.96517 3.49214 9.96517 3.52053 9.93678 3.57731C9.82321 4.03157 9.70965 4.51422 9.59608 4.96848C9.59608 4.99687 9.59608 5.02526 9.56769 5.08205C9.79482 5.13883 10.0503 5.19561 10.2775 5.25239C10.3059 5.25239 10.3343 5.19561 10.3626 5.16722C10.4478 4.79813 10.533 4.45744 10.6466 4.08835L10.7317 3.74766C10.7317 3.69088 10.7601 3.66249 10.8169 3.69088C11.1008 3.77605 11.3847 3.83283 11.697 3.91801C11.7254 3.91801 11.7254 3.9464 11.7538 3.9464C11.6686 4.31548 11.5835 4.65618 11.4983 4.99687C11.4699 5.13883 11.4415 5.28078 11.3847 5.42274C11.3563 5.50791 11.3847 5.5363 11.4699 5.5647L12.4068 5.99056C12.6907 6.16091 12.9462 6.38804 13.145 6.67195C13.4005 7.09782 13.4289 7.55208 13.3153 8.00634C13.2302 8.31864 13.1166 8.60255 12.8895 8.82968C12.7191 9.00003 12.492 9.11359 12.2649 9.19876C12.2365 9.19876 12.2081 9.22716 12.1513 9.22716C12.2649 9.31233 12.3784 9.36911 12.492 9.45428C12.8327 9.70981 13.0598 10.0221 13.1734 10.4196C13.2302 10.7319 13.2018 11.0726 13.1166 11.3849C13.003 11.7824 12.8611 12.1231 12.6055 12.4354C12.2932 12.8044 11.8958 13.0032 11.4415 13.06C10.8453 13.1451 10.2775 13.0884 9.70965 13.0032C9.62447 12.9748 9.56769 13.0032 9.5393 13.0884C9.42573 13.5426 9.31217 14.0253 9.19861 14.4795C9.17021 14.5931 9.17021 14.6215 9.02826 14.5647C8.77274 14.5079 8.48883 14.4227 8.23331 14.366C8.14813 14.3376 8.14813 14.3092 8.17652 14.2524C8.29009 13.7697 8.40365 13.2871 8.54561 12.8328C8.54561 12.7761 8.574 12.7477 8.51722 12.7193C8.29009 12.6625 8.06296 12.6057 7.80744 12.5489C7.75066 12.8044 7.66548 13.06 7.6087 13.3155C7.55192 13.571 7.46674 13.8265 7.40996 14.082C7.38157 14.1388 7.38157 14.1672 7.2964 14.1388C7.01249 14.0537 6.72857 13.9969 6.44466 13.9401C6.35949 13.9117 6.35949 13.8833 6.38788 13.8265C6.50144 13.3439 6.61501 12.8612 6.75696 12.407C6.75696 12.3786 6.78536 12.3502 6.78536 12.2934C6.13236 12.1231 5.47936 11.9527 4.79797 11.7824C4.85476 11.6688 4.88315 11.5836 4.93993 11.4701C5.05349 11.2145 5.16706 10.959 5.25223 10.7319C5.28062 10.6467 5.30901 10.6467 5.39419 10.6467C5.59293 10.7035 5.82006 10.7603 6.01879 10.7887C6.24592 10.8455 6.41627 10.7319 6.44466 10.5331C6.81375 9.0852 7.18283 7.63725 7.52353 6.16091C7.58031 5.93378 7.43835 5.67826 7.18283 5.59309C6.92731 5.50791 6.67179 5.45113 6.44466 5.39435C6.38788 5.39435 6.35949 5.36596 6.38788 5.30917C6.47305 4.99687 6.55823 4.65618 6.6434 4.34388C6.52983 4.42905 6.52984 4.42905 6.55823 4.40066ZM8.00618 11.4133C8.03457 11.4133 8.06296 11.4417 8.06296 11.4417C8.51722 11.5552 8.99987 11.6972 9.48252 11.7256C9.82321 11.754 10.1355 11.754 10.4478 11.6404C10.9872 11.4701 11.2144 10.7603 10.9021 10.306C10.7601 10.0789 10.533 9.93693 10.3059 9.79498C9.79482 9.51107 9.1986 9.3975 8.63078 9.28394C8.54561 9.25555 8.54561 9.28394 8.51722 9.36911C8.46043 9.65302 8.37526 9.90854 8.31848 10.1925C8.20491 10.5899 8.11974 10.9874 8.00618 11.4133ZM10.391 8.51738C10.4478 8.51738 10.5898 8.48899 10.7033 8.46059C11.2428 8.34703 11.5267 7.72242 11.2428 7.23977C11.1008 6.98425 10.8453 6.81391 10.5898 6.70034C10.1923 6.52999 9.79482 6.44482 9.36895 6.33126C9.28378 6.30287 9.25539 6.33126 9.227 6.41643C9.08504 7.01264 8.94308 7.58047 8.77274 8.17668C8.74435 8.23346 8.77274 8.26186 8.82952 8.29025C8.94308 8.31864 9.02826 8.34703 9.14182 8.37542C9.56769 8.4322 9.93677 8.51738 10.391 8.51738Z" fill="white"/>
</svg>
