<svg width="17" height="16" viewBox="0 0 17 16" fill="none" xmlns="http://www.w3.org/2000/svg">
<path d="M4.94268 10.3907H12.3907C12.5225 10.3907 12.6514 10.3516 12.761 10.2783C12.8706 10.2051 12.956 10.1009 13.0065 9.97915C13.0569 9.85735 13.0701 9.72332 13.0444 9.59402C13.0187 9.46472 12.9552 9.34594 12.862 9.25271L9.13801 5.52872C9.01299 5.40374 8.84345 5.33353 8.66668 5.33353C8.4899 5.33353 8.32036 5.40374 8.19534 5.52872L4.47134 9.25271C4.37814 9.34594 4.31467 9.46472 4.28896 9.59402C4.26324 9.72332 4.27645 9.85735 4.32689 9.97915C4.37734 10.1009 4.46277 10.2051 4.57237 10.2783C4.68198 10.3516 4.81084 10.3907 4.94268 10.3907Z" fill="#00A543"/>
</svg>
