<svg width="20" height="20" viewBox="0 0 20 20" fill="none" xmlns="http://www.w3.org/2000/svg">
<g clip-path="url(#clip0_4_811)">
<path d="M10 12.4932C8.6193 12.4932 7.5 13.6125 7.5 14.9932V19.9932H12.5V14.9932C12.5 13.6125 11.3807 12.4932 10 12.4932Z" fill="#7F7888"/>
<path d="M14.1667 14.9935V19.9935H17.5C18.8807 19.9935 20 18.8742 20 17.4935V9.89268C20.0002 9.45975 19.832 9.04373 19.5308 8.73268L12.4492 1.07682C11.1996 -0.275135 9.09074 -0.358143 7.73879 0.891389C7.67457 0.950764 7.6127 1.0126 7.55336 1.07682L0.48418 8.73018C0.173945 9.04252 -0.000117128 9.46494 5.9134e-08 9.90518V17.4935C5.9134e-08 18.8742 1.1193 19.9935 2.5 19.9935H5.83332V14.9935C5.84891 12.7212 7.68355 10.8655 9.89867 10.8121C12.1879 10.7569 14.1492 12.6441 14.1667 14.9935Z" fill="#7F7888"/>
<path d="M10 12.4932C8.6193 12.4932 7.5 13.6125 7.5 14.9932V19.9932H12.5V14.9932C12.5 13.6125 11.3807 12.4932 10 12.4932Z" fill="#7F7888"/>
</g>
<defs>
<clipPath id="clip0_4_811">
<rect width="20" height="20" fill="white"/>
</clipPath>
</defs>
</svg>
