<svg width="20" height="20" viewBox="0 0 20 20" fill="none" xmlns="http://www.w3.org/2000/svg">
<g clip-path="url(#clip0_4_843)">
<path d="M1.66667 12.5H9.16667V20H5.83333C4.72826 20 3.66846 19.561 2.88706 18.7796C2.10565 17.9982 1.66667 16.9384 1.66667 15.8333V12.5ZM20 9.16667C20 9.60869 19.8244 10.0326 19.5118 10.3452C19.1993 10.6577 18.7754 10.8333 18.3333 10.8333H10.8333V7.46417C10.5533 7.48583 10.2742 7.5 10 7.5C9.72583 7.5 9.44667 7.48583 9.16667 7.46417V10.8333H1.66667C1.22464 10.8333 0.800716 10.6577 0.488155 10.3452C0.175595 10.0326 0 9.60869 0 9.16667C0 8.28261 0.35119 7.43476 0.976311 6.80964C1.60143 6.18452 2.44928 5.83333 3.33333 5.83333H4.78167C4.3105 5.418 3.9365 4.90407 3.6862 4.328C3.4359 3.75193 3.31543 3.12784 3.33333 2.5C3.33333 2.27899 3.42113 2.06702 3.57741 1.91074C3.73369 1.75446 3.94565 1.66667 4.16667 1.66667C4.38768 1.66667 4.59964 1.75446 4.75592 1.91074C4.9122 2.06702 5 2.27899 5 2.5C5 4.685 6.97583 5.44167 8.47833 5.70083C7.92376 4.71755 7.58992 3.62531 7.5 2.5C7.5 1.83696 7.76339 1.20107 8.23223 0.732233C8.70107 0.263392 9.33696 0 10 0C10.663 0 11.2989 0.263392 11.7678 0.732233C12.2366 1.20107 12.5 1.83696 12.5 2.5C12.4101 3.62531 12.0762 4.71755 11.5217 5.70083C13.0242 5.44167 15 4.685 15 2.5C15 2.27899 15.0878 2.06702 15.2441 1.91074C15.4004 1.75446 15.6123 1.66667 15.8333 1.66667C16.0543 1.66667 16.2663 1.75446 16.4226 1.91074C16.5789 2.06702 16.6667 2.27899 16.6667 2.5C16.6846 3.12784 16.5641 3.75193 16.3138 4.328C16.0635 4.90407 15.6895 5.418 15.2183 5.83333H16.6667C17.5507 5.83333 18.3986 6.18452 19.0237 6.80964C19.6488 7.43476 20 8.28261 20 9.16667ZM9.16667 2.5C9.26726 3.38569 9.55106 4.24076 10 5.01083C10.4489 4.24076 10.7327 3.38569 10.8333 2.5C10.8333 2.27899 10.7455 2.06702 10.5893 1.91074C10.433 1.75446 10.221 1.66667 10 1.66667C9.77899 1.66667 9.56702 1.75446 9.41074 1.91074C9.25446 2.06702 9.16667 2.27899 9.16667 2.5V2.5ZM10.8333 20H14.1667C14.7138 20 15.2557 19.8922 15.7612 19.6828C16.2667 19.4734 16.726 19.1665 17.1129 18.7796C17.4999 18.3927 17.8068 17.9334 18.0162 17.4278C18.2256 16.9223 18.3333 16.3805 18.3333 15.8333V12.5H10.8333V20Z" fill="#7F7888"/>
</g>
<defs>
<clipPath id="clip0_4_843">
<rect width="20" height="20" fill="white"/>
</clipPath>
</defs>
</svg>
