<svg width="20" height="22" viewBox="0 0 20 22" fill="none" xmlns="http://www.w3.org/2000/svg">
<path d="M15.8843 7.13997C15.7683 7.01326 15.6304 6.91273 15.4787 6.84415C15.327 6.77557 15.1644 6.74026 15.0002 6.74026C14.8359 6.74026 14.6733 6.77557 14.5216 6.84415C14.3699 6.91273 14.2321 7.01326 14.116 7.13997L10.2943 11.3082C10.2162 11.3934 10.1102 11.4412 9.99975 11.4412C9.88927 11.4412 9.7833 11.3934 9.70517 11.3082L5.88433 7.13997C5.64995 6.88416 5.33201 6.7404 5.00046 6.74031C4.66891 6.74023 4.35091 6.88383 4.11642 7.13952C3.88192 7.39521 3.75014 7.74205 3.75006 8.10374C3.74998 8.46543 3.88162 8.81234 4.116 9.06816L7.93767 13.2372C8.20851 13.5327 8.53005 13.7671 8.88394 13.9271C9.23782 14.087 9.61712 14.1693 10.0002 14.1693C10.3832 14.1693 10.7625 14.087 11.1164 13.9271C11.4703 13.7671 11.7918 13.5327 12.0627 13.2372L15.8843 9.06816C16.1187 8.81244 16.2503 8.46565 16.2503 8.10406C16.2503 7.74248 16.1187 7.39569 15.8843 7.13997Z" fill="#49444F"/>
</svg>
