<svg width="25" height="24" viewBox="0 0 25 24" fill="none" xmlns="http://www.w3.org/2000/svg">
<g clip-path="url(#clip0_2_571)">
<path d="M8.284 21C8.67166 21.8914 9.31123 22.6502 10.1241 23.1831C10.9371 23.716 11.888 23.9999 12.86 23.9999C13.832 23.9999 14.7829 23.716 15.5958 23.1831C16.4088 22.6502 17.0483 21.8914 17.436 21H8.284Z" fill="#7F7888"/>
<path d="M23.252 12.549L21.516 6.82602C20.9601 4.82437 19.7514 3.0658 18.0819 1.82952C16.4124 0.59325 14.3777 -0.049861 12.301 0.00229941C10.2242 0.0544598 8.22436 0.798902 6.61901 2.11743C5.01365 3.43595 3.89478 5.25298 3.44004 7.28002L2.09204 12.817C1.91287 13.5528 1.90316 14.3196 2.06365 15.0597C2.22413 15.7997 2.55062 16.4937 3.01846 17.0891C3.4863 17.6845 4.08329 18.166 4.76435 18.497C5.44542 18.828 6.19278 19 6.95004 19H18.467C19.2478 19 20.0177 18.8172 20.7151 18.4663C21.4124 18.1153 22.0179 17.6058 22.4831 16.9788C22.9482 16.3517 23.26 15.6244 23.3935 14.8552C23.5271 14.086 23.4786 13.2962 23.252 12.549V12.549Z" fill="#7F7888"/>
</g>
<defs>
<clipPath id="clip0_2_571">
<rect width="24" height="24" fill="white" transform="translate(0.859985)"/>
</clipPath>
</defs>
</svg>
