<svg width="16" height="18" viewBox="0 0 16 18" fill="none" xmlns="http://www.w3.org/2000/svg">
<path d="M12.7075 5.71198C12.6146 5.6106 12.5043 5.53019 12.383 5.47532C12.2616 5.42045 12.1315 5.39221 12.0001 5.39221C11.8688 5.39221 11.7387 5.42045 11.6173 5.47532C11.4959 5.53019 11.3857 5.6106 11.2928 5.71198L8.23547 9.04652C8.17296 9.1147 8.08819 9.15299 7.9998 9.15299C7.91142 9.15299 7.82665 9.1147 7.76414 9.04652L4.70747 5.71198C4.51996 5.50733 4.26561 5.39232 4.00037 5.39225C3.73513 5.39218 3.48073 5.50706 3.29314 5.71162C3.10554 5.91617 3.00012 6.19364 3.00005 6.48299C2.99999 6.77235 3.1053 7.04987 3.2928 7.25452L6.35014 10.5898C6.56681 10.8262 6.82405 11.0137 7.10715 11.1416C7.39026 11.2696 7.6937 11.3354 8.00014 11.3354C8.30658 11.3354 8.61001 11.2696 8.89312 11.1416C9.17623 11.0137 9.43346 10.8262 9.65014 10.5898L12.7075 7.25452C12.8949 7.04995 13.0003 6.77252 13.0003 6.48325C13.0003 6.19398 12.8949 5.91655 12.7075 5.71198Z" fill="#7F7888"/>
</svg>
