<svg width="16" height="18" viewBox="0 0 16 18" fill="none" xmlns="http://www.w3.org/2000/svg">
<path d="M12.7075 5.71199C12.6146 5.61062 12.5043 5.5302 12.383 5.47533C12.2616 5.42046 12.1315 5.39222 12.0001 5.39222C11.8688 5.39222 11.7387 5.42046 11.6173 5.47533C11.4959 5.5302 11.3857 5.61062 11.2928 5.71199L8.23548 9.04654C8.17297 9.11471 8.0882 9.153 7.99981 9.153C7.91142 9.153 7.82665 9.11471 7.76415 9.04654L4.70748 5.71199C4.51997 5.50734 4.26562 5.39233 4.00038 5.39226C3.73514 5.39219 3.48074 5.50707 3.29315 5.71163C3.10555 5.91618 3.00012 6.19365 3.00006 6.48301C3 6.77236 3.1053 7.04988 3.29281 7.25454L6.35015 10.5898C6.56682 10.8262 6.82405 11.0137 7.10716 11.1417C7.39027 11.2696 7.69371 11.3354 8.00015 11.3354C8.30658 11.3354 8.61002 11.2696 8.89313 11.1417C9.17624 11.0137 9.43347 10.8262 9.65015 10.5898L12.7075 7.25454C12.8949 7.04996 13.0003 6.77253 13.0003 6.48326C13.0003 6.19399 12.8949 5.91657 12.7075 5.71199Z" fill="#7F7888"/>
</svg>
