<svg width="16" height="18" viewBox="0 0 16 18" fill="none" xmlns="http://www.w3.org/2000/svg">
<path d="M12.7075 5.71198C12.6146 5.6106 12.5043 5.53019 12.383 5.47532C12.2616 5.42045 12.1315 5.39221 12.0001 5.39221C11.8688 5.39221 11.7387 5.42045 11.6173 5.47532C11.4959 5.53019 11.3857 5.6106 11.2928 5.71198L8.23548 9.04652C8.17297 9.1147 8.0882 9.15299 7.99981 9.15299C7.91142 9.15299 7.82665 9.1147 7.76415 9.04652L4.70748 5.71198C4.51997 5.50733 4.26562 5.39232 4.00038 5.39225C3.73514 5.39218 3.48074 5.50706 3.29315 5.71162C3.10555 5.91617 3.00012 6.19364 3.00006 6.48299C3 6.77235 3.1053 7.04987 3.29281 7.25452L6.35015 10.5898C6.56682 10.8262 6.82405 11.0137 7.10716 11.1416C7.39027 11.2696 7.69371 11.3354 8.00015 11.3354C8.30658 11.3354 8.61002 11.2696 8.89313 11.1416C9.17624 11.0137 9.43347 10.8262 9.65015 10.5898L12.7075 7.25452C12.8949 7.04995 13.0003 6.77252 13.0003 6.48325C13.0003 6.19398 12.8949 5.91655 12.7075 5.71198Z" fill="#7F7888"/>
</svg>
