<svg width="20" height="20" viewBox="0 0 20 20" fill="none" xmlns="http://www.w3.org/2000/svg">
<g clip-path="url(#clip0_4_821)">
<path d="M15.5943 9.99999H11.6668C10.7464 9.99999 10.0002 9.25377 10.0002 8.33331V4.39499C10.0025 3.61803 9.64335 2.88413 9.02847 2.40917C8.44581 1.94776 7.68183 1.78331 6.96097 1.96417C2.06136 3.18042 -0.924614 8.13835 0.291675 13.038C1.14859 16.49 3.93015 19.1315 7.42183 19.8092C12.1918 20.7222 16.8459 17.7565 18.0335 13.0475C18.215 12.3257 18.0509 11.5605 17.5893 10.9767C17.1089 10.3629 16.3738 10.003 15.5943 9.99999Z" fill="#7F7888"/>
<path d="M19.709 6.20508C19.5188 5.49797 19.2355 4.81926 18.8665 4.18676C17.7568 2.28293 15.944 0.890858 13.8182 0.310076C13.6782 0.272303 13.3648 0.250076 13.3648 0.250076C13.2529 0.250115 12.7707 0.250076 12.389 0.559256C11.828 1.0007 11.7398 1.50258 11.7315 1.54176C11.7024 1.66465 11.6873 1.79047 11.6865 1.91676V5.83344C11.6865 7.21414 12.8058 8.33344 14.1865 8.33344H18.119C18.6408 8.33492 19.1318 8.08722 19.4407 7.66676C19.6692 7.35875 19.7867 6.9825 19.774 6.59926C19.7674 6.46582 19.7456 6.33355 19.709 6.20508Z" fill="#7F7888"/>
</g>
<defs>
<clipPath id="clip0_4_821">
<rect width="20" height="20" fill="white"/>
</clipPath>
</defs>
</svg>
