<svg width="691" height="161" viewBox="0 0 691 161" fill="none" xmlns="http://www.w3.org/2000/svg">
<path d="M1 160L31.9519 135.204C32.3067 134.92 32.7477 134.765 33.2023 134.765H85.0846C85.6659 134.765 86.2184 134.512 86.5983 134.072L110.426 106.478C111.05 105.756 112.098 105.575 112.928 106.047L170.181 138.595C170.7 138.89 171.323 138.938 171.88 138.726L259.564 105.4C259.851 105.292 260.109 105.118 260.318 104.894L301.718 60.4369C302.202 59.9169 302.926 59.6929 303.619 59.8484L414.189 84.6504C414.708 84.7668 415.159 85.085 415.443 85.5348L445.034 132.441C445.758 133.589 447.391 133.698 448.261 132.656L557.326 2.00481C558.17 0.994075 559.743 1.06026 560.499 2.13828L590.91 45.5096C590.97 45.5948 591.036 45.6752 591.109 45.7501L647.297 103.988C647.988 104.704 649.099 104.804 649.905 104.223L691 74.6309" stroke="#7314EE" stroke-width="2" stroke-linecap="round"/>
</svg>
