<svg width="24" height="24" viewBox="0 0 24 24" fill="none" xmlns="http://www.w3.org/2000/svg">
<g clip-path="url(#clip0_2_674)">
<path opacity="0.2" d="M12 24C18.6274 24 24 18.6274 24 12C24 5.37258 18.6274 0 12 0C5.37258 0 0 5.37258 0 12C0 18.6274 5.37258 24 12 24Z" fill="#1276A7"/>
<path d="M13.451 6.75954C12.7 7.18711 12.2552 7.95923 12.2552 8.77344C12.2552 9.20101 12.4324 9.6319 12.6542 10.0163C12.8314 10.3597 12.9183 10.959 12.2999 11.2592C11.8586 11.5151 11.2813 11.3445 11.0172 10.9158C10.7531 10.5724 10.4434 10.2291 10.0444 9.97313C9.29331 9.54556 8.40731 9.54556 7.6562 9.97313C6.90509 10.4007 6.46152 11.1748 6.46152 11.9892C6.46152 12.8036 6.9028 13.5755 7.65603 14.0042C8.40708 14.4318 9.29308 14.4318 10.0442 14.0042C10.4432 13.7893 10.7529 13.4481 10.9725 13.0615C11.1497 12.7613 11.6367 12.3747 12.2551 12.7181C12.6964 12.974 12.829 13.5334 12.6095 13.961C12.3877 14.3476 12.2551 14.7763 12.2551 15.2039C12.2551 16.0192 12.6964 16.7902 13.4509 17.2178C14.2019 17.6453 15.0879 17.6453 15.8391 17.2178C16.5902 16.7902 17.0349 16.0181 17.0349 15.2039C17.0349 14.3897 16.5925 13.6176 15.8392 13.1889C15.4402 12.974 14.9978 12.8887 14.5119 12.8887C14.1129 12.8887 13.5836 12.6328 13.5836 11.9892C13.5836 11.4741 13.9826 11.0897 14.5119 11.0897C14.9532 11.0897 15.4402 11.0044 15.8392 10.7895C16.5902 10.3619 17.0349 9.58981 17.0349 8.77566C17.0349 7.9615 16.5925 7.18938 15.8392 6.76176C15.4848 6.54687 15.0435 6.46157 14.6447 6.46157C14.248 6.45936 13.8032 6.54687 13.4512 6.75954" fill="#1276A7"/>
</g>
<defs>
<clipPath id="clip0_2_674">
<rect width="24" height="24" fill="white"/>
</clipPath>
</defs>
</svg>
