<svg width="40" height="40" viewBox="0 0 40 40" fill="none" xmlns="http://www.w3.org/2000/svg" xmlns:xlink="http://www.w3.org/1999/xlink">
<path d="M38.333,36.667L8.333,36.667C7.007,36.667 5.735,36.14 4.798,35.202C3.86,34.265 3.333,32.993 3.333,31.667L3.333,1.667C3.333,1.225 3.158,0.801 2.845,0.488C2.533,0.176 2.109,0 1.667,0C1.225,0 0.801,0.176 0.488,0.488C0.176,0.801 0,1.225 0,1.667L0,31.667C0.003,33.876 0.881,35.994 2.444,37.556C4.006,39.119 6.124,39.997 8.333,40L38.333,40C38.775,40 39.199,39.824 39.512,39.512C39.824,39.199 40,38.775 40,38.333C40,37.891 39.824,37.467 39.512,37.155C39.199,36.842 38.775,36.667 38.333,36.667Z" fill="#7314EE"/>
<path d="M10,33.333C10.442,33.333 10.866,33.158 11.179,32.845C11.491,32.532 11.667,32.109 11.667,31.667L11.667,20C11.667,19.558 11.491,19.134 11.179,18.821C10.866,18.509 10.442,18.333 10,18.333C9.558,18.333 9.134,18.509 8.822,18.821C8.509,19.134 8.334,19.558 8.334,20L8.334,31.667C8.334,32.109 8.509,32.532 8.822,32.845C9.134,33.158 9.558,33.333 10,33.333Z" fill="#7314EE"/>
<path d="M16.666,16.667L16.666,31.667C16.666,32.109 16.842,32.533 17.155,32.845C17.467,33.158 17.891,33.333 18.333,33.333C18.775,33.333 19.199,33.158 19.512,32.845C19.824,32.533 20,32.109 20,31.667L20,16.667C20,16.225 19.824,15.801 19.512,15.488C19.199,15.176 18.775,15 18.333,15C17.891,15 17.467,15.176 17.155,15.488C16.842,15.801 16.666,16.225 16.666,16.667Z" fill="#7314EE"/>
<path d="M25,21.667L25,31.667C25,32.109 25.176,32.533 25.488,32.845C25.801,33.158 26.225,33.333 26.667,33.333C27.109,33.333 27.533,33.158 27.845,32.845C28.158,32.533 28.333,32.109 28.333,31.667L28.333,21.667C28.333,21.225 28.158,20.801 27.845,20.488C27.533,20.176 27.109,20 26.667,20C26.225,20 25.801,20.176 25.488,20.488C25.176,20.801 25,21.225 25,21.667Z" fill="#7314EE"/>
<path d="M33.334,15L33.334,31.667C33.334,32.109 33.509,32.532 33.822,32.845C34.134,33.158 34.558,33.333 35,33.333C35.442,33.333 35.866,33.158 36.179,32.845C36.491,32.532 36.667,32.109 36.667,31.667L36.667,15C36.667,14.558 36.491,14.134 36.179,13.821C35.866,13.509 35.442,13.333 35,13.333C34.558,13.333 34.134,13.509 33.822,13.821C33.509,14.134 33.334,14.558 33.334,15Z" fill="#7314EE"/>
<path d="M10,15C10.442,15 10.866,14.824 11.178,14.512L17.155,8.535C17.472,8.232 17.894,8.063 18.333,8.063C18.772,8.063 19.194,8.232 19.511,8.535L23.131,12.155C24.069,13.092 25.341,13.619 26.666,13.619C27.992,13.619 29.264,13.092 30.201,12.155L39.511,2.845C39.815,2.531 39.983,2.11 39.979,1.673C39.975,1.236 39.8,0.818 39.491,0.509C39.182,0.2 38.764,0.024 38.327,0.02C37.89,0.017 37.469,0.185 37.155,0.488L27.845,9.797C27.532,10.109 27.108,10.285 26.666,10.285C26.224,10.285 25.801,10.109 25.488,9.797L21.868,6.178C20.93,5.241 19.659,4.714 18.333,4.714C17.007,4.714 15.736,5.241 14.798,6.178L8.821,12.155C8.588,12.388 8.43,12.685 8.365,13.008C8.301,13.331 8.334,13.667 8.46,13.971C8.586,14.275 8.8,14.536 9.074,14.719C9.348,14.902 9.67,15 10,15L10,15Z" fill="#7314EE"/>
</svg>
