<svg width="48" height="48" viewBox="0 0 48 48" fill="none" xmlns="http://www.w3.org/2000/svg" xmlns:xlink="http://www.w3.org/1999/xlink">
<path d="M14.568,42C15.343,43.783 16.622,45.3 18.248,46.366C19.874,47.432 21.776,48 23.72,48C25.664,48 27.566,47.432 29.192,46.366C30.818,45.3 32.097,43.783 32.872,42L14.568,42Z" fill="#7F7888"/>
<path d="M44.504,25.098L41.032,13.652C39.92,9.649 37.503,6.132 34.164,3.659C30.825,1.187 26.755,-0.1 22.602,0.005C18.448,0.109 14.449,1.598 11.238,4.235C8.027,6.872 5.79,10.506 4.88,14.56L2.184,25.634C1.826,27.106 1.806,28.639 2.127,30.119C2.448,31.6 3.101,32.987 4.037,34.178C4.973,35.369 6.167,36.332 7.529,36.994C8.891,37.656 10.386,38 11.9,38L34.934,38C36.496,38 38.035,37.635 39.43,36.933C40.825,36.231 42.036,35.212 42.966,33.958C43.896,32.703 44.52,31.249 44.787,29.71C45.054,28.172 44.957,26.592 44.504,25.098L44.504,25.098Z" fill="#7F7888"/>
</svg>
