<svg width="40" height="40" viewBox="0 0 40 40" fill="none" xmlns="http://www.w3.org/2000/svg" xmlns:xlink="http://www.w3.org/1999/xlink">
<path d="M31.189,20L23.334,20C21.493,20 20,18.508 20,16.667L20,8.79C20.005,7.236 19.287,5.768 18.057,4.818C16.892,3.896 15.364,3.567 13.922,3.928C4.123,6.361 -1.849,16.277 0.583,26.076C2.297,32.98 7.86,38.263 14.844,39.618C24.384,41.444 33.692,35.513 36.067,26.095C36.43,24.651 36.102,23.121 35.179,21.953C34.218,20.726 32.748,20.006 31.189,20Z" fill="#7F7888"/>
<path d="M39.418,12.41C39.038,10.996 38.471,9.639 37.733,8.374C35.514,4.566 31.888,1.782 27.636,0.62C27.356,0.545 26.73,0.5 26.73,0.5C26.506,0.5 25.541,0.5 24.778,1.119C23.656,2.001 23.48,3.005 23.463,3.084C23.405,3.329 23.375,3.581 23.373,3.834L23.373,11.667C23.373,14.428 25.612,16.667 28.373,16.667L36.238,16.667C37.282,16.67 38.264,16.174 38.881,15.334C39.338,14.718 39.573,13.965 39.548,13.199C39.535,12.932 39.491,12.667 39.418,12.41Z" fill="#7F7888"/>
</svg>
