<svg width="1384" height="322" viewBox="0 0 1384 322" fill="none" xmlns="http://www.w3.org/2000/svg" xmlns:xlink="http://www.w3.org/1999/xlink">
<path d="M0.75,318.44C-0.112,319.13 -0.251,320.388 0.439,321.25C1.13,322.112 2.388,322.252 3.25,321.56L0.75,318.44ZM1383.168,150.885C1384.066,150.239 1384.268,148.989 1383.624,148.093C1382.978,147.197 1381.728,146.993 1380.832,147.639L1383.168,150.885ZM1294.594,207.976L1293.156,209.366L1294.594,207.976ZM1299.81,208.446L1298.642,206.822L1299.81,208.446ZM1181.82,91.019L1180.182,92.167L1181.82,91.019ZM1182.218,91.5L1180.778,92.889L1182.218,91.5ZM1114.652,4.01L1116.188,5.291L1114.652,4.01ZM1120.998,4.277L1119.362,5.425L1120.998,4.277ZM890.068,264.882L888.376,265.95L890.068,264.882ZM896.522,265.312L898.058,266.594L896.522,265.312ZM828.378,169.301L827.942,171.252L828.378,169.301ZM830.886,171.07L829.194,172.137L830.886,171.07ZM603.436,120.874L601.972,119.511L603.436,120.874ZM607.238,119.697L607.676,117.745L607.238,119.697ZM519.128,210.8L519.84,212.67L519.128,210.8ZM520.636,209.788L522.098,211.15L520.636,209.788ZM340.362,277.19L339.374,278.928L340.362,277.19ZM343.76,277.452L343.05,275.582L343.05,275.582L343.76,277.452ZM225.856,212.094L226.846,210.356L225.856,212.094ZM173.197,268.144L174.71,269.452L173.197,268.144ZM63.904,270.408L62.653,268.848L63.904,270.408ZM3.25,321.56L65.154,271.97L62.653,268.848L0.75,318.44L3.25,321.56ZM66.405,271.53L170.169,271.53L170.169,267.53L66.405,267.53L66.405,271.53ZM174.71,269.452L222.366,214.264L219.338,211.65L171.683,266.838L174.71,269.452ZM224.868,213.832L339.374,278.928L341.352,275.452L226.846,210.356L224.868,213.832ZM344.472,279.322L519.84,212.67L518.418,208.932L343.05,275.582L344.472,279.322ZM522.098,211.15L604.9,122.237L601.972,119.511L519.172,208.424L522.098,211.15ZM606.802,121.648L827.942,171.252L828.816,167.349L607.676,117.745L606.802,121.648ZM829.194,172.137L888.376,265.95L891.76,263.816L832.578,170.003L829.194,172.137ZM898.058,266.594L1116.188,5.291L1113.118,2.728L894.986,264.03L898.058,266.594ZM1119.362,5.425L1180.182,92.167L1183.458,89.871L1122.636,3.128L1119.362,5.425ZM1180.778,92.889L1293.156,209.366L1296.034,206.588L1183.656,90.111L1180.778,92.889ZM1300.98,210.068L1383.168,150.885L1380.832,147.639L1298.642,206.822L1300.98,210.068ZM1293.156,209.366C1295.226,211.512 1298.56,211.812 1300.98,210.068L1298.642,206.822C1297.836,207.404 1296.724,207.304 1296.034,206.588L1293.156,209.366ZM1180.182,92.167C1180.362,92.423 1180.562,92.664 1180.778,92.889L1183.656,90.111C1183.584,90.037 1183.518,89.956 1183.458,89.871L1180.182,92.167ZM1116.188,5.291C1117.032,4.281 1118.606,4.347 1119.362,5.425L1122.636,3.128C1120.368,-0.106 1115.648,-0.304 1113.118,2.728L1116.188,5.291ZM888.376,265.95C890.548,269.394 895.448,269.718 898.058,266.594L894.986,264.03C894.116,265.072 892.484,264.964 891.76,263.816L888.376,265.95ZM827.942,171.252C828.46,171.369 828.912,171.687 829.194,172.137L832.578,170.003C831.726,168.653 830.374,167.698 828.816,167.349L827.942,171.252ZM604.9,122.237C605.384,121.717 606.108,121.493 606.802,121.648L607.676,117.745C605.596,117.279 603.426,117.951 601.972,119.511L604.9,122.237ZM519.84,212.67C520.7,212.344 521.472,211.824 522.098,211.15L519.172,208.424C518.962,208.65 518.704,208.822 518.418,208.932L519.84,212.67ZM339.374,278.928C340.93,279.812 342.798,279.956 344.472,279.322L343.05,275.582C342.492,275.794 341.87,275.746 341.352,275.452L339.374,278.928ZM222.366,214.264C222.99,213.542 224.038,213.36 224.868,213.832L226.846,210.356C224.354,208.94 221.21,209.482 219.338,211.65L222.366,214.264ZM170.169,271.53C171.913,271.53 173.571,270.772 174.71,269.452L171.683,266.838C171.303,267.278 170.75,267.53 170.169,267.53L170.169,271.53ZM65.154,271.97C65.509,271.686 65.95,271.53 66.405,271.53L66.405,267.53C65.041,267.53 63.718,267.994 62.653,268.848L65.154,271.97Z" fill="#7314EE"/>
</svg>
