<svg width="36" height="36" viewBox="0 0 36 36" fill="none" xmlns="http://www.w3.org/2000/svg" xmlns:xlink="http://www.w3.org/1999/xlink">
<path d="M18,36C27.941,36 36,27.941 36,18C36,8.059 27.941,0 18,0C8.059,0 0,8.059 0,18C0,27.941 8.059,36 18,36Z" fill="#F5B300"/>
<path d="M13.116,8.801C13.741,8.972 14.366,9.085 14.99,9.256C15.615,9.426 16.239,9.539 16.864,9.71C17.034,9.767 17.091,9.71 17.148,9.539C17.375,8.574 17.602,7.666 17.829,6.7C17.886,6.53 17.943,6.473 18.113,6.53C18.681,6.7 19.192,6.814 19.76,6.927C19.93,6.984 19.93,7.041 19.874,7.155C19.646,8.063 19.419,9.028 19.192,9.937C19.192,9.994 19.192,10.051 19.135,10.164C19.59,10.278 20.101,10.391 20.555,10.505C20.612,10.505 20.669,10.391 20.725,10.334C20.896,9.596 21.066,8.915 21.293,8.177L21.463,7.495C21.463,7.382 21.52,7.325 21.634,7.382C22.202,7.552 22.769,7.666 23.394,7.836C23.451,7.836 23.451,7.893 23.508,7.893C23.337,8.631 23.167,9.312 22.997,9.994C22.94,10.278 22.883,10.562 22.769,10.845C22.713,11.016 22.769,11.073 22.94,11.129L24.814,11.981C25.381,12.322 25.892,12.776 26.29,13.344C26.801,14.196 26.858,15.104 26.631,16.013C26.46,16.637 26.233,17.205 25.779,17.659C25.438,18 24.984,18.227 24.53,18.398C24.473,18.398 24.416,18.454 24.303,18.454C24.53,18.625 24.757,18.738 24.984,18.909C25.665,19.42 26.12,20.044 26.347,20.839C26.46,21.464 26.404,22.145 26.233,22.77C26.006,23.565 25.722,24.246 25.211,24.871C24.586,25.609 23.792,26.006 22.883,26.12C21.691,26.29 20.555,26.177 19.419,26.006C19.249,25.95 19.135,26.006 19.079,26.177C18.851,27.085 18.624,28.051 18.397,28.959C18.34,29.186 18.34,29.243 18.057,29.129C17.545,29.016 16.978,28.846 16.467,28.732C16.296,28.675 16.296,28.618 16.353,28.505C16.58,27.54 16.807,26.574 17.091,25.666C17.091,25.552 17.148,25.495 17.034,25.439C16.58,25.325 16.126,25.211 15.615,25.098C15.501,25.609 15.331,26.12 15.217,26.631C15.104,27.142 14.933,27.653 14.82,28.164C14.763,28.278 14.763,28.335 14.593,28.278C14.025,28.107 13.457,27.994 12.889,27.88C12.719,27.823 12.719,27.767 12.776,27.653C13.003,26.688 13.23,25.722 13.514,24.814C13.514,24.757 13.571,24.7 13.571,24.587C12.265,24.246 10.959,23.905 9.596,23.565C9.71,23.338 9.766,23.167 9.88,22.94C10.107,22.429 10.334,21.918 10.504,21.464C10.561,21.293 10.618,21.293 10.788,21.293C11.186,21.407 11.64,21.521 12.038,21.577C12.492,21.691 12.833,21.464 12.889,21.066C13.627,18.17 14.366,15.275 15.047,12.322C15.161,11.868 14.877,11.357 14.366,11.186C13.855,11.016 13.344,10.902 12.889,10.789C12.776,10.789 12.719,10.732 12.776,10.618C12.946,9.994 13.116,9.312 13.287,8.688C13.06,8.858 13.06,8.858 13.116,8.801ZM16.012,22.827C16.069,22.827 16.126,22.883 16.126,22.883C17.034,23.11 18,23.394 18.965,23.451C19.646,23.508 20.271,23.508 20.896,23.281C21.974,22.94 22.429,21.521 21.804,20.612C21.52,20.158 21.066,19.874 20.612,19.59C19.59,19.022 18.397,18.795 17.262,18.568C17.091,18.511 17.091,18.568 17.034,18.738C16.921,19.306 16.751,19.817 16.637,20.385C16.41,21.18 16.239,21.975 16.012,22.827ZM20.782,17.035C20.896,17.035 21.18,16.978 21.407,16.921C22.486,16.694 23.053,15.445 22.486,14.48C22.202,13.969 21.691,13.628 21.18,13.401C20.385,13.06 19.59,12.89 18.738,12.663C18.568,12.606 18.511,12.663 18.454,12.833C18.17,14.025 17.886,15.161 17.545,16.353C17.489,16.467 17.545,16.524 17.659,16.58C17.886,16.637 18.057,16.694 18.284,16.751C19.135,16.864 19.874,17.035 20.782,17.035Z" fill="#FFFFFF"/>
</svg>
