<svg width="26" height="40" viewBox="0 0 26 40" fill="none" xmlns="http://www.w3.org/2000/svg" xmlns:xlink="http://www.w3.org/1999/xlink">
<path d="M12.251,0L12.251,14.724C12.251,14.786 12.188,14.849 12.126,14.849C11.688,15.04 11.313,15.229 10.875,15.419C10.313,15.67 9.688,15.924 9.125,16.24L7.063,17.186L5.375,17.945L3.313,18.894C2.75,19.147 2.188,19.399 1.563,19.715C1.125,19.904 0.625,20.158 0.188,20.347C0.125,20.347 0.125,20.41 0.063,20.347L0,20.347C0.188,20.031 0.375,19.778 0.563,19.463C1.563,17.756 2.625,16.051 3.625,14.344C4.688,12.513 5.813,10.679 6.875,8.847C7.875,7.141 8.875,5.436 9.875,3.793C10.625,2.527 11.375,1.329 12.063,0.063C12.188,0.063 12.188,0 12.251,0C12.188,0 12.251,0 12.251,0L12.251,0Z" fill="#8C8C8C"/>
<path d="M24.376,20.347C23.438,20.98 22.438,21.547 21.501,22.115C18.438,23.949 15.438,25.719 12.375,27.551C12.313,27.551 12.313,27.614 12.25,27.614C12.188,27.614 12.188,27.551 12.188,27.551L12.188,14.849C12.188,14.786 12.25,14.786 12.313,14.786C12.563,14.911 12.813,15.04 13.126,15.165C13.876,15.545 14.688,15.861 15.438,16.24C16.126,16.556 16.751,16.872 17.438,17.124C18.126,17.44 18.751,17.756 19.438,18.072C20.001,18.326 20.626,18.578 21.188,18.894C21.751,19.147 22.376,19.399 22.938,19.715C23.376,19.905 23.814,20.158 24.314,20.347C24.314,20.285 24.314,20.347 24.376,20.347L24.376,20.347Z" fill="#141414"/>
<path d="M12.251,40C12.251,40 12.188,40 12.251,40C12.188,40 12.188,40 12.126,39.936C10.876,38.168 9.688,36.461 8.438,34.691L4.688,29.383C3.5,27.678 2.25,25.973 1.063,24.201L0.125,22.874C0.125,22.812 0.063,22.812 0.063,22.749C0.125,22.749 0.125,22.812 0.188,22.812C1.875,23.823 3.625,24.833 5.313,25.844C7.25,27.046 9.25,28.183 11.188,29.383C11.501,29.573 11.876,29.762 12.188,29.951C12.251,29.951 12.251,30.016 12.251,30.078L12.251,40Z" fill="#8C8C8C"/>
<path d="M0,19.686C0,19.623 0,19.623 0,19.686C0.625,19.37 1.25,19.118 1.875,18.802L4.313,17.664C4.938,17.348 5.563,17.097 6.188,16.78C7.063,16.338 8,15.959 8.875,15.516C9.5,15.263 10.125,14.946 10.75,14.695C11.188,14.505 11.626,14.316 12.063,14.063C12.126,14.063 12.126,14 12.188,14L12.188,26.89C12.126,26.954 12.126,26.89 12.063,26.89C11.876,26.765 11.688,26.701 11.563,26.574L0.125,19.75C0.063,19.686 0,19.686 0,19.686ZM24.189,22.025C24.189,22.088 24.189,22.088 24.126,22.15C20.501,27.333 16.876,32.451 13.251,37.633C12.876,38.201 12.501,38.706 12.126,39.276L12.126,29.227C12.938,28.722 13.751,28.217 14.563,27.776L24.126,22.088C24.126,22.025 24.189,22.025 24.189,22.025L24.189,22.025Z" fill="#3C3C3B"/>
<path d="M12.251,14.786L12.251,0.066L24.251,20.16C24.314,20.222 24.376,20.285 24.376,20.349C24.126,20.224 23.876,20.095 23.564,19.971C23.251,19.844 22.939,19.654 22.626,19.528C22.439,19.465 22.251,19.338 22.001,19.274C21.688,19.149 21.313,18.958 21.001,18.833C20.813,18.769 20.626,18.644 20.438,18.579L19.126,18.012C18.876,17.885 18.688,17.822 18.438,17.695C18.126,17.569 17.813,17.379 17.501,17.253C17.313,17.19 17.126,17.063 16.938,17.001L15.626,16.431C15.376,16.306 15.188,16.242 14.938,16.115C14.626,15.99 14.313,15.799 14.001,15.672C13.813,15.547 13.563,15.483 13.376,15.358L12.251,14.788L12.251,14.786Z" fill="#343434"/>
</svg>
