<svg width="40" height="40" viewBox="0 0 40 40" fill="none" xmlns="http://www.w3.org/2000/svg" xmlns:xlink="http://www.w3.org/1999/xlink">
<path d="M20,24.986C17.239,24.986 15,27.225 15,29.986L15,39.986L25,39.986L25,29.986C25,27.225 22.761,24.986 20,24.986Z" fill="#7F7888"/>
<path d="M28.333,29.987L28.333,39.987L35,39.987C37.761,39.987 40,37.749 40,34.987L40,19.785C40,18.92 39.664,18.087 39.062,17.465L24.898,2.154C22.399,-0.55 18.181,-0.716 15.478,1.783C15.349,1.902 15.225,2.025 15.107,2.154L0.968,17.46C0.348,18.085 0,18.93 0,19.81L0,34.987C0,37.749 2.239,39.987 5,39.987L11.667,39.987L11.667,29.987C11.698,25.442 15.367,21.731 19.797,21.624C24.376,21.514 28.298,25.288 28.333,29.987Z" fill="#7F7888"/>
<path d="M20,24.986C17.239,24.986 15,27.225 15,29.986L15,39.986L25,39.986L25,29.986C25,27.225 22.761,24.986 20,24.986Z" fill="#7F7888"/>
</svg>
