<svg width="34" height="36" viewBox="0 0 34 36" fill="none" xmlns="http://www.w3.org/2000/svg" xmlns:xlink="http://www.w3.org/1999/xlink">
<path d="M29.586,34.414C30.367,35.195 31.633,35.195 32.414,34.414C33.195,33.633 33.195,32.367 32.414,31.586L29.586,34.414ZM22.414,21.586C21.633,20.805 20.367,20.805 19.586,21.586C18.805,22.367 18.805,23.633 19.586,24.414L22.414,21.586ZM22.333,14.667C22.333,20.005 18.005,24.333 12.667,24.333L12.667,28.333C20.215,28.333 26.333,22.215 26.333,14.667L22.333,14.667ZM12.667,24.333C7.328,24.333 3,20.005 3,14.667L-1,14.667C-1,22.215 5.119,28.333 12.667,28.333L12.667,24.333ZM3,14.667C3,9.328 7.328,5 12.667,5L12.667,1C5.119,1 -1,7.119 -1,14.667L3,14.667ZM12.667,5C18.005,5 22.333,9.328 22.333,14.667L26.333,14.667C26.333,7.119 20.215,1 12.667,1L12.667,5ZM32.414,31.586L22.414,21.586L19.586,24.414L29.586,34.414L32.414,31.586Z" fill="#5A6778"/>
</svg>
