<svg width="24" height="24" viewBox="0 0 24 24" fill="none" xmlns="http://www.w3.org/2000/svg" xmlns:xlink="http://www.w3.org/1999/xlink">
<path d="M14.902,1.519C13.4,2.374 12.51,3.918 12.51,5.547C12.51,6.402 12.865,7.264 13.308,8.033C13.663,8.719 13.837,9.918 12.6,10.518C11.717,11.03 10.563,10.689 10.034,9.832C9.506,9.145 8.887,8.458 8.089,7.946C6.587,7.091 4.815,7.091 3.312,7.946C1.81,8.801 0.923,10.35 0.923,11.978C0.923,13.607 1.806,15.151 3.312,16.008C4.814,16.864 6.586,16.864 8.088,16.008C8.886,15.579 9.506,14.896 9.945,14.123C10.299,13.523 11.273,12.749 12.51,13.436C13.393,13.948 13.658,15.067 13.219,15.922C12.775,16.695 12.51,17.553 12.51,18.408C12.51,20.038 13.393,21.58 14.902,22.435C16.404,23.291 18.176,23.291 19.678,22.435C21.18,21.58 22.07,20.036 22.07,18.408C22.07,16.779 21.185,15.235 19.678,14.378C18.88,13.948 17.996,13.777 17.024,13.777C16.226,13.777 15.167,13.266 15.167,11.978C15.167,10.948 15.965,10.179 17.024,10.179C17.906,10.179 18.88,10.009 19.678,9.579C21.18,8.724 22.07,7.18 22.07,5.551C22.07,3.923 21.185,2.379 19.678,1.524C18.97,1.094 18.087,0.923 17.289,0.923C16.496,0.919 15.606,1.094 14.902,1.519Z" fill="#1276A7"/>
</svg>
