<svg width="32" height="28" viewBox="0 0 32 28" fill="none" xmlns="http://www.w3.org/2000/svg" xmlns:xlink="http://www.w3.org/1999/xlink">
<path d="M28.122,9.05L20.95,1.878C20.387,1.315 19.624,1 18.828,1C18.032,1 17.269,1.316 16.707,1.879C16.144,2.442 15.828,3.205 15.829,4.001C15.829,4.796 16.145,5.559 16.708,6.122L21.586,11L4,11C3.204,11 2.441,11.316 1.878,11.879C1.316,12.441 1,13.204 1,14C1,14.796 1.316,15.559 1.878,16.121C2.441,16.684 3.204,17 4,17L21.586,17L16.708,21.878C16.145,22.441 15.829,23.204 15.829,23.999C15.828,24.795 16.144,25.558 16.707,26.121C17.269,26.684 18.032,27 18.828,27C19.624,27 20.387,26.685 20.95,26.122L28.122,18.95C29.432,17.636 30.168,15.856 30.168,14C30.168,12.144 29.432,10.364 28.122,9.05L28.122,9.05Z" fill="#7314EE"/>
</svg>
