<svg width="40" height="40" viewBox="0 0 40 40" fill="none" xmlns="http://www.w3.org/2000/svg" xmlns:xlink="http://www.w3.org/1999/xlink">
<path d="M3.333,25L18.333,25L18.333,40L11.667,40C9.457,40 7.337,39.122 5.774,37.559C4.211,35.996 3.333,33.877 3.333,31.667L3.333,25ZM40,18.333C40,19.217 39.649,20.065 39.024,20.69C38.399,21.315 37.551,21.667 36.667,21.667L21.667,21.667L21.667,14.928C21.107,14.972 20.548,15 20,15C19.452,15 18.893,14.972 18.333,14.928L18.333,21.667L3.333,21.667C2.449,21.667 1.601,21.315 0.976,20.69C0.351,20.065 0,19.217 0,18.333C0,16.565 0.702,14.87 1.953,13.619C3.203,12.369 4.899,11.667 6.667,11.667L9.563,11.667C8.621,10.836 7.873,9.808 7.372,8.656C6.872,7.504 6.631,6.256 6.667,5C6.667,4.558 6.842,4.134 7.155,3.821C7.467,3.509 7.891,3.333 8.333,3.333C8.775,3.333 9.199,3.509 9.512,3.821C9.824,4.134 10,4.558 10,5C10,9.37 13.952,10.883 16.957,11.402C15.848,9.435 15.18,7.251 15,5C15,3.674 15.527,2.402 16.464,1.464C17.402,0.527 18.674,0 20,0C21.326,0 22.598,0.527 23.536,1.464C24.473,2.402 25,3.674 25,5C24.82,7.251 24.152,9.435 23.043,11.402C26.048,10.883 30,9.37 30,5C30,4.558 30.176,4.134 30.488,3.821C30.801,3.509 31.225,3.333 31.667,3.333C32.109,3.333 32.533,3.509 32.845,3.821C33.158,4.134 33.333,4.558 33.333,5C33.369,6.256 33.128,7.504 32.628,8.656C32.127,9.808 31.379,10.836 30.437,11.667L33.333,11.667C35.101,11.667 36.797,12.369 38.047,13.619C39.298,14.87 40,16.565 40,18.333ZM18.333,5C18.535,6.771 19.102,8.482 20,10.022C20.898,8.482 21.465,6.771 21.667,5C21.667,4.558 21.491,4.134 21.179,3.821C20.866,3.509 20.442,3.333 20,3.333C19.558,3.333 19.134,3.509 18.821,3.821C18.509,4.134 18.333,4.558 18.333,5L18.333,5ZM21.667,40L28.333,40C29.428,40 30.511,39.784 31.522,39.366C32.533,38.947 33.452,38.333 34.226,37.559C35,36.785 35.614,35.867 36.032,34.856C36.451,33.845 36.667,32.761 36.667,31.667L36.667,25L21.667,25L21.667,40Z" fill="#7F7888"/>
</svg>
