<svg width="28" height="40" viewBox="0 0 28 40" fill="none" xmlns="http://www.w3.org/2000/svg" xmlns:xlink="http://www.w3.org/1999/xlink">
<path d="M14,26.667C11.363,26.667 8.785,25.885 6.592,24.42C4.399,22.954 2.69,20.872 1.681,18.436C0.672,15.999 0.408,13.319 0.922,10.732C1.437,8.146 2.707,5.77 4.571,3.905C6.436,2.041 8.812,0.771 11.398,0.256C13.985,-0.258 16.666,0.006 19.102,1.015C21.538,2.024 23.621,3.733 25.086,5.926C26.551,8.118 27.333,10.696 27.333,13.333C27.329,16.868 25.923,20.257 23.423,22.757C20.924,25.257 17.535,26.663 14,26.667ZM14,30C10.389,29.998 6.877,28.817 4,26.635L4,35.833C4,36.618 4.221,37.387 4.639,38.052C5.057,38.716 5.654,39.249 6.362,39.589C7.069,39.929 7.858,40.062 8.638,39.973C9.418,39.884 10.157,39.577 10.77,39.087L13.48,36.92C13.627,36.802 13.811,36.738 14,36.738C14.189,36.738 14.372,36.802 14.52,36.92L17.23,39.087C17.842,39.577 18.581,39.884 19.361,39.973C20.141,40.062 20.93,39.929 21.638,39.589C22.345,39.249 22.942,38.716 23.36,38.052C23.778,37.387 24,36.618 24,35.833L24,26.635C21.122,28.816 17.611,29.998 14,30Z" fill="#7F7888"/>
</svg>
