<svg width="26" height="16" viewBox="0 0 26 16" fill="none" xmlns="http://www.w3.org/2000/svg" xmlns:xlink="http://www.w3.org/1999/xlink">
<path d="M23.769,0.28C23.537,0.027 23.261,-0.175 22.957,-0.312C22.654,-0.449 22.329,-0.519 22,-0.519C21.672,-0.519 21.347,-0.449 21.043,-0.312C20.74,-0.175 20.464,0.027 20.232,0.28L12.589,8.616C12.432,8.787 12.22,8.882 12,8.882C11.779,8.882 11.567,8.787 11.41,8.616L3.769,0.28C3.3,-0.232 2.664,-0.519 2.001,-0.519C1.338,-0.52 0.702,-0.232 0.233,0.279C-0.236,0.79 -0.5,1.484 -0.5,2.207C-0.5,2.931 -0.237,3.625 0.232,4.136L7.875,12.474C8.417,13.065 9.06,13.534 9.768,13.854C10.476,14.174 11.234,14.339 12,14.339C12.766,14.339 13.525,14.174 14.233,13.854C14.941,13.534 15.584,13.065 16.125,12.474L23.769,4.136C24.237,3.625 24.501,2.931 24.501,2.208C24.501,1.485 24.237,0.791 23.769,0.28Z" fill="#49444F"/>
</svg>
