<svg width="18" height="12" viewBox="0 0 18 12" fill="none" xmlns="http://www.w3.org/2000/svg" xmlns:xlink="http://www.w3.org/1999/xlink">
<path d="M0.552,0L15.448,0C15.712,0 15.969,0.078 16.189,0.225C16.408,0.371 16.579,0.58 16.68,0.823C16.781,1.067 16.807,1.335 16.755,1.593C16.704,1.852 16.577,2.09 16.391,2.276L8.943,9.724C8.693,9.974 8.354,10.114 8,10.114C7.646,10.114 7.307,9.974 7.057,9.724L-0.391,2.276C-0.577,2.09 -0.704,1.852 -0.755,1.593C-0.807,1.335 -0.78,1.067 -0.68,0.823C-0.579,0.58 -0.408,0.371 -0.189,0.225C0.031,0.078 0.288,0 0.552,0Z" fill="#DC0032"/>
</svg>
