<svg width="36" height="28" viewBox="0 0 36 28" fill="none" xmlns="http://www.w3.org/2000/svg" xmlns:xlink="http://www.w3.org/1999/xlink">
<path d="M5.85,20.611C6.071,20.401 6.369,20.282 6.681,20.282L35.412,20.282C35.935,20.282 36.197,20.888 35.827,21.242L30.15,26.671C29.929,26.882 29.631,27 29.319,27L0.589,27C0.065,27 -0.197,26.394 0.173,26.04L5.85,20.611Z" fill="url(#pf_0_i_1_285;17_1090;17_1074;5_54)"/>
<path d="M5.85,0.329C6.071,0.118 6.369,0 6.681,0L35.412,0C35.935,0 36.197,0.606 35.827,0.96L30.15,6.389C29.929,6.599 29.631,6.718 29.319,6.718L0.589,6.718C0.065,6.718 -0.197,6.112 0.173,5.758L5.85,0.329Z" fill="url(#pf_0_i_1_285;17_1090;17_1074;5_54)"/>
<path d="M30.15,10.406C29.929,10.195 29.631,10.077 29.319,10.077L0.589,10.077C0.065,10.077 -0.197,10.682 0.173,11.036L5.85,16.465C6.071,16.676 6.369,16.794 6.681,16.794L35.412,16.794C35.935,16.794 36.197,16.189 35.827,15.834L30.15,10.406Z" fill="url(#pf_0_i_1_285;17_1090;17_1074;5_54)"/>
<defs>
<linearGradient id="pf_0_i_1_285;17_1090;17_1074;5_54" x1="24.338" y1="-7.406" x2="4.454" y2="29.044" gradientUnits="userSpaceOnUse">
<stop stop-color="#00FFA3"/>
<stop offset="1" stop-color="#DC1FFF"/>
</linearGradient>
<linearGradient id="pf_0_i_1_285;17_1090;17_1074;5_54" x1="24.338" y1="-7.406" x2="4.454" y2="29.044" gradientUnits="userSpaceOnUse">
<stop stop-color="#00FFA3"/>
<stop offset="1" stop-color="#DC1FFF"/>
</linearGradient>
<linearGradient id="pf_0_i_1_285;17_1090;17_1074;5_54" x1="24.338" y1="-7.406" x2="4.454" y2="29.044" gradientUnits="userSpaceOnUse">
<stop stop-color="#00FFA3"/>
<stop offset="1" stop-color="#DC1FFF"/>
</linearGradient>
</defs>
</svg>
