<svg width="20" height="12" viewBox="0 0 20 12" fill="none" xmlns="http://www.w3.org/2000/svg" xmlns:xlink="http://www.w3.org/1999/xlink">
<path d="M1.885,10.781L16.781,10.781C17.045,10.781 17.303,10.703 17.522,10.557C17.741,10.41 17.912,10.202 18.013,9.958C18.114,9.715 18.14,9.447 18.089,9.188C18.037,8.929 17.91,8.692 17.724,8.505L10.276,1.057C10.026,0.807 9.687,0.667 9.333,0.667C8.98,0.667 8.641,0.807 8.391,1.057L0.943,8.505C0.756,8.692 0.629,8.929 0.578,9.188C0.526,9.447 0.553,9.715 0.654,9.958C0.755,10.202 0.926,10.41 1.145,10.557C1.364,10.703 1.622,10.781 1.885,10.781Z" fill="#00A543"/>
</svg>
