<svg width="20" height="14" viewBox="0 0 20 14" fill="none" xmlns="http://www.w3.org/2000/svg" xmlns:xlink="http://www.w3.org/1999/xlink">
<path d="M19.415,1.424C19.229,1.221 19.009,1.06 18.766,0.951C18.523,0.841 18.263,0.784 18,0.784C17.738,0.784 17.477,0.841 17.235,0.951C16.992,1.06 16.771,1.221 16.586,1.424L10.471,8.093C10.346,8.229 10.176,8.306 10,8.306C9.823,8.306 9.653,8.229 9.528,8.093L3.415,1.424C3.04,1.015 2.531,0.785 2.001,0.785C1.47,0.784 0.961,1.014 0.586,1.423C0.211,1.832 0,2.387 0,2.966C0,3.545 0.211,4.1 0.586,4.509L6.7,11.18C7.134,11.652 7.648,12.027 8.214,12.283C8.781,12.539 9.387,12.671 10,12.671C10.613,12.671 11.22,12.539 11.786,12.283C12.352,12.027 12.867,11.652 13.3,11.18L19.415,4.509C19.79,4.1 20.001,3.545 20.001,2.967C20.001,2.388 19.79,1.833 19.415,1.424Z" fill="#7F7888"/>
</svg>
