<svg width="18" height="12" viewBox="0 0 18 12" fill="none" xmlns="http://www.w3.org/2000/svg" xmlns:xlink="http://www.w3.org/1999/xlink">
<path d="M0.552,10.781L15.448,10.781C15.712,10.781 15.969,10.703 16.189,10.557C16.408,10.41 16.579,10.202 16.68,9.958C16.781,9.715 16.807,9.447 16.755,9.188C16.704,8.929 16.577,8.692 16.391,8.505L8.943,1.057C8.693,0.807 8.354,0.667 8,0.667C7.646,0.667 7.307,0.807 7.057,1.057L-0.391,8.505C-0.577,8.692 -0.704,8.929 -0.755,9.188C-0.807,9.447 -0.78,9.715 -0.68,9.958C-0.579,10.202 -0.408,10.41 -0.189,10.557C0.031,10.703 0.288,10.781 0.552,10.781Z" fill="#00A543"/>
</svg>
