<svg width="30" height="40" viewBox="0 0 30 40" fill="none" xmlns="http://www.w3.org/2000/svg" xmlns:xlink="http://www.w3.org/1999/xlink">
<path d="M5.861,4.669C6.902,4.953 7.943,5.142 8.984,5.426C10.025,5.71 11.066,5.899 12.107,6.183C12.391,6.278 12.485,6.183 12.58,5.899C12.959,4.29 13.337,2.776 13.716,1.167C13.81,0.883 13.905,0.789 14.189,0.883C15.135,1.167 15.987,1.357 16.933,1.546C17.217,1.64 17.217,1.735 17.123,1.924C16.744,3.439 16.366,5.047 15.987,6.562C15.987,6.656 15.987,6.751 15.892,6.94C16.65,7.129 17.501,7.319 18.258,7.508C18.353,7.508 18.448,7.319 18.542,7.224C18.826,5.994 19.11,4.858 19.489,3.628L19.773,2.492C19.773,2.303 19.867,2.208 20.056,2.303C21.003,2.587 21.949,2.776 22.99,3.06C23.085,3.06 23.085,3.155 23.18,3.155C22.896,4.385 22.612,5.521 22.328,6.656C22.233,7.129 22.139,7.603 21.949,8.076C21.855,8.36 21.949,8.454 22.233,8.549L25.356,9.968C26.303,10.536 27.154,11.293 27.817,12.24C28.668,13.659 28.763,15.174 28.385,16.688C28.101,17.729 27.722,18.675 26.965,19.432C26.397,20 25.64,20.379 24.883,20.663C24.788,20.663 24.694,20.757 24.504,20.757C24.883,21.041 25.262,21.23 25.64,21.514C26.776,22.366 27.533,23.407 27.911,24.732C28.101,25.773 28.006,26.909 27.722,27.95C27.344,29.274 26.87,30.41 26.019,31.451C24.978,32.681 23.653,33.344 22.139,33.533C20.151,33.817 18.258,33.628 16.366,33.344C16.082,33.249 15.892,33.344 15.798,33.628C15.419,35.142 15.041,36.751 14.662,38.265C14.567,38.644 14.567,38.738 14.094,38.549C13.243,38.36 12.296,38.076 11.444,37.886C11.161,37.792 11.161,37.697 11.255,37.508C11.634,35.899 12.012,34.29 12.485,32.776C12.485,32.587 12.58,32.492 12.391,32.397C11.634,32.208 10.877,32.019 10.025,31.83C9.836,32.681 9.552,33.533 9.362,34.385C9.173,35.237 8.889,36.088 8.7,36.94C8.605,37.129 8.605,37.224 8.321,37.129C7.375,36.845 6.429,36.656 5.482,36.467C5.198,36.372 5.198,36.278 5.293,36.088C5.672,34.48 6.05,32.871 6.523,31.356C6.523,31.262 6.618,31.167 6.618,30.978C4.441,30.41 2.265,29.842 -0.007,29.274C0.183,28.896 0.277,28.612 0.467,28.233C0.845,27.382 1.224,26.53 1.508,25.773C1.602,25.489 1.697,25.489 1.981,25.489C2.643,25.678 3.4,25.868 4.063,25.962C4.82,26.151 5.388,25.773 5.482,25.11C6.713,20.284 7.943,15.457 9.079,10.536C9.268,9.779 8.795,8.927 7.943,8.644C7.091,8.36 6.239,8.17 5.482,7.981C5.293,7.981 5.198,7.886 5.293,7.697C5.577,6.656 5.861,5.521 6.145,4.48C5.766,4.763 5.766,4.763 5.861,4.669ZM10.687,28.044C10.782,28.044 10.877,28.139 10.877,28.139C12.391,28.517 14,28.991 15.608,29.085C16.744,29.18 17.785,29.18 18.826,28.801C20.624,28.233 21.381,25.868 20.34,24.353C19.867,23.596 19.11,23.123 18.353,22.65C16.65,21.703 14.662,21.325 12.769,20.946C12.485,20.852 12.485,20.946 12.391,21.23C12.202,22.177 11.918,23.028 11.728,23.975C11.35,25.3 11.066,26.625 10.687,28.044ZM18.637,18.391C18.826,18.391 19.299,18.297 19.678,18.202C21.476,17.823 22.422,15.741 21.476,14.133C21.003,13.281 20.151,12.713 19.299,12.334C17.974,11.767 16.65,11.483 15.23,11.104C14.946,11.01 14.851,11.104 14.757,11.388C14.284,13.375 13.81,15.268 13.243,17.256C13.148,17.445 13.243,17.539 13.432,17.634C13.81,17.729 14.094,17.823 14.473,17.918C15.892,18.107 17.123,18.391 18.637,18.391Z" fill="#FFFFFF"/>
</svg>
