<svg width="24" height="24" viewBox="0 0 24 24" fill="none" xmlns="http://www.w3.org/2000/svg">
<rect width="24" height="24" rx="12" fill="#1F262C"/>
<path d="M12 8.1875C12.725 8.1875 13.3125 8.775 13.3125 9.5C13.3125 10.225 12.725 10.8125 12 10.8125C11.275 10.8125 10.6875 10.225 10.6875 9.5C10.6875 8.775 11.275 8.1875 12 8.1875ZM12 13.8125C13.8562 13.8125 15.8125 14.725 15.8125 15.125V15.8125H8.1875V15.125C8.1875 14.725 10.1437 13.8125 12 13.8125ZM12 7C10.6188 7 9.5 8.11875 9.5 9.5C9.5 10.8812 10.6188 12 12 12C13.3812 12 14.5 10.8812 14.5 9.5C14.5 8.11875 13.3812 7 12 7ZM12 12.625C10.3312 12.625 7 13.4625 7 15.125V16.375C7 16.7188 7.28125 17 7.625 17H16.375C16.7188 17 17 16.7188 17 16.375V15.125C17 13.4625 13.6687 12.625 12 12.625Z" fill="#A4A4A4"/>
</svg>
