<svg width="20" height="18" viewBox="0 0 20 18" fill="none" xmlns="http://www.w3.org/2000/svg">
<rect y="0.5" width="20" height="16" rx="6" fill="#E5E5E5"/>
<path d="M14.7074 6.21198C14.6146 6.1106 14.5043 6.03019 14.3829 5.97532C14.2615 5.92045 14.1315 5.89221 14.0001 5.89221C13.8687 5.89221 13.7386 5.92045 13.6173 5.97532C13.4959 6.03019 13.3856 6.1106 13.2928 6.21198L10.2354 9.54652C10.1729 9.6147 10.0881 9.65299 9.99975 9.65299C9.91136 9.65299 9.82659 9.6147 9.76408 9.54652L6.70742 6.21198C6.51991 6.00733 6.26556 5.89232 6.00032 5.89225C5.73508 5.89218 5.48068 6.00706 5.29308 6.21162C5.10549 6.41617 5.00006 6.69364 5 6.98299C4.99994 7.27235 5.10524 7.54987 5.29275 7.75452L8.35008 11.0898C8.56676 11.3262 8.82399 11.5137 9.1071 11.6416C9.39021 11.7696 9.69365 11.8354 10.0001 11.8354C10.3065 11.8354 10.61 11.7696 10.8931 11.6416C11.1762 11.5137 11.4334 11.3262 11.6501 11.0898L14.7074 7.75452C14.8949 7.54995 15.0002 7.27252 15.0002 6.98325C15.0002 6.69398 14.8949 6.41655 14.7074 6.21198Z" fill="#121112"/>
</svg>
