<svg width="16" height="18" viewBox="0 0 16 18" fill="none" xmlns="http://www.w3.org/2000/svg">
<path d="M12.7074 6.21199C12.6146 6.11062 12.5043 6.0302 12.3829 5.97533C12.2615 5.92047 12.1315 5.89223 12.0001 5.89223C11.8687 5.89223 11.7386 5.92047 11.6173 5.97533C11.4959 6.0302 11.3856 6.11062 11.2928 6.21199L8.23542 9.54654C8.17291 9.61471 8.08814 9.65301 7.99975 9.65301C7.91136 9.65301 7.82659 9.61471 7.76408 9.54654L4.70742 6.21199C4.51991 6.00734 4.26556 5.89233 4.00032 5.89227C3.73508 5.8922 3.48068 6.00708 3.29308 6.21163C3.10549 6.41618 3.00006 6.69366 3 6.98301C2.99994 7.27236 3.10524 7.54989 3.29275 7.75454L6.35008 11.0898C6.56676 11.3262 6.82399 11.5137 7.1071 11.6417C7.39021 11.7696 7.69365 11.8355 8.00008 11.8355C8.30652 11.8355 8.60996 11.7696 8.89307 11.6417C9.17618 11.5137 9.43341 11.3262 9.65008 11.0898L12.7074 7.75454C12.8949 7.54996 13.0002 7.27254 13.0002 6.98327C13.0002 6.694 12.8949 6.41657 12.7074 6.21199Z" fill="#121112"/>
</svg>
