<svg width="16" height="18" viewBox="0 0 16 18" fill="none" xmlns="http://www.w3.org/2000/svg">
<path d="M12.7074 5.71198C12.6146 5.6106 12.5043 5.53019 12.3829 5.47532C12.2615 5.42045 12.1315 5.39221 12.0001 5.39221C11.8687 5.39221 11.7386 5.42045 11.6173 5.47532C11.4959 5.53019 11.3856 5.6106 11.2928 5.71198L8.23542 9.04652C8.17291 9.1147 8.08814 9.15299 7.99975 9.15299C7.91136 9.15299 7.82659 9.1147 7.76408 9.04652L4.70742 5.71198C4.51991 5.50733 4.26556 5.39232 4.00032 5.39225C3.73508 5.39218 3.48068 5.50706 3.29308 5.71162C3.10549 5.91617 3.00006 6.19364 3 6.48299C2.99994 6.77235 3.10524 7.04987 3.29275 7.25452L6.35008 10.5898C6.56676 10.8262 6.82399 11.0137 7.1071 11.1416C7.39021 11.2696 7.69365 11.3354 8.00008 11.3354C8.30652 11.3354 8.60996 11.2696 8.89307 11.1416C9.17618 11.0137 9.43341 10.8262 9.65008 10.5898L12.7074 7.25452C12.8949 7.04995 13.0002 6.77252 13.0002 6.48325C13.0002 6.19398 12.8949 5.91655 12.7074 5.71198Z" fill="#F4EBFF"/>
</svg>
