<svg width="16" height="18" viewBox="0 0 16 18" fill="none" xmlns="http://www.w3.org/2000/svg">
<path d="M12.7074 5.71199C12.6146 5.61061 12.5043 5.53019 12.3829 5.47533C12.2615 5.42046 12.1315 5.39222 12.0001 5.39222C11.8687 5.39222 11.7386 5.42046 11.6173 5.47533C11.4959 5.53019 11.3856 5.61061 11.2928 5.71199L8.23542 9.04653C8.17291 9.1147 8.08814 9.153 7.99975 9.153C7.91136 9.153 7.82659 9.1147 7.76408 9.04653L4.70742 5.71199C4.51991 5.50734 4.26556 5.39233 4.00032 5.39226C3.73508 5.39219 3.48068 5.50707 3.29308 5.71162C3.10549 5.91618 3.00006 6.19365 3 6.483C2.99994 6.77235 3.10524 7.04988 3.29275 7.25453L6.35008 10.5898C6.56676 10.8262 6.82399 11.0137 7.1071 11.1417C7.39021 11.2696 7.69365 11.3354 8.00008 11.3354C8.30652 11.3354 8.60996 11.2696 8.89307 11.1417C9.17618 11.0137 9.43341 10.8262 9.65008 10.5898L12.7074 7.25453C12.8949 7.04996 13.0002 6.77253 13.0002 6.48326C13.0002 6.19399 12.8949 5.91656 12.7074 5.71199Z" fill="#F4EBFF"/>
</svg>
