<svg width="16" height="16" viewBox="0 0 16 16" fill="none" xmlns="http://www.w3.org/2000/svg">
<path d="M4.27602 10.3907H11.724C11.8559 10.3907 11.9847 10.3516 12.0943 10.2783C12.2039 10.205 12.2894 10.1009 12.3398 9.97914C12.3903 9.85734 12.4035 9.72332 12.3777 9.59402C12.352 9.46472 12.2886 9.34594 12.1954 9.25271L8.47135 5.52871C8.34634 5.40373 8.1768 5.33352 8.00002 5.33352C7.82325 5.33352 7.65371 5.40373 7.52869 5.52871L3.80469 9.25271C3.71148 9.34594 3.64801 9.46472 3.6223 9.59402C3.59659 9.72332 3.60979 9.85734 3.66024 9.97914C3.71068 10.1009 3.79611 10.205 3.90572 10.2783C4.01532 10.3516 4.14419 10.3907 4.27602 10.3907Z" fill="#00A543"/>
</svg>
