<svg width="24" height="24" viewBox="0 0 24 24" fill="none" xmlns="http://www.w3.org/2000/svg">
<path d="M8.65003 3.34999L5.86003 6.13999C5.54003 6.44999 5.76003 6.98999 6.21003 6.98999H8.00003V13C8.00003 13.55 8.45003 14 9.00003 14C9.55003 14 10 13.55 10 13V6.98999H11.79C12.24 6.98999 12.46 6.44999 12.14 6.13999L9.35003 3.34999C9.16003 3.15999 8.84003 3.15999 8.65003 3.34999ZM16 17.01V11C16 10.45 15.55 9.99999 15 9.99999C14.45 9.99999 14 10.45 14 11V17.01H12.21C11.76 17.01 11.54 17.55 11.86 17.86L14.65 20.64C14.85 20.83 15.16 20.83 15.36 20.64L18.15 17.86C18.47 17.55 18.24 17.01 17.8 17.01H16Z" fill="#7C7C7C"/>
</svg>
