<svg width="24" height="24" viewBox="0 0 24 24" fill="none" xmlns="http://www.w3.org/2000/svg">
<path d="M8.65 3.35L5.86 6.14C5.54 6.45 5.76 6.99 6.21 6.99H8V13C8 13.55 8.45 14 9 14C9.55 14 10 13.55 10 13V6.99H11.79C12.24 6.99 12.46 6.45 12.14 6.14L9.35 3.35C9.16 3.16 8.84 3.16 8.65 3.35ZM16 17.01V11C16 10.45 15.55 10 15 10C14.45 10 14 10.45 14 11V17.01H12.21C11.76 17.01 11.54 17.55 11.86 17.86L14.65 20.64C14.85 20.83 15.16 20.83 15.36 20.64L18.15 17.86C18.47 17.55 18.24 17.01 17.8 17.01H16Z" fill="#7C7C7C"/>
</svg>
